<?xml version="1.0" encoding="UTF-8"?>
<svg xmlns="http://www.w3.org/2000/svg" viewBox="-26 -36 1348 712" width="1348" height="712"><style>
text{font-family:Helvetica, Arial, sans-serif;font-size:12px;fill:#111418;dominant-baseline:auto}
.d-mono{font-family:Menlo, Consolas, monospace;font-size:11px;fill:#2d343c}
.d-name{font-family:Helvetica, Arial, sans-serif;font-size:12.5px;font-weight:600;letter-spacing:.04em}
.d-italic{font-style:italic}
.d-comp{font-size:10.5px;font-style:italic;fill:#5b6470}
.d-frame{fill:none;stroke:#111418;stroke-width:1}
.d-frame-tab{fill:#ffffff;stroke:#111418;stroke-width:1}
.d-sym .d-shape{fill:#f4f8fd;stroke:#111418}
.d-sym .d-rule,.d-sym .d-stick{stroke:#111418}
.d-sym.c-b .d-shape{fill:#fdf8ee;stroke:#111418}
.d-sym.c-b .d-rule,.d-sym.c-b .d-stick{stroke:#111418}
.d-sym.c-c .d-shape{fill:#fbf3f6;stroke:#111418}
.d-sym.c-c .d-rule,.d-sym.c-c .d-stick{stroke:#111418}
.d-sym.c-n .d-shape{fill:#fffbe6;stroke:#5b6470}
.d-sym.c-n .d-rule,.d-sym.c-n .d-stick{stroke:#5b6470}
.d-shape{stroke-width:1.2}
.d-shape.dashed{stroke-dasharray:6 4}
.d-rule{stroke-width:.8;opacity:.55;fill:none}
.d-stick{fill:none;stroke-width:1.5}
.d-port{fill:#ffffff;stroke:#111418;stroke-width:1.2}
.d-port-dir{fill:#111418;stroke:none}
.d-line{fill:none;stroke:#2d343c;stroke-width:1.2}
.d-line.dashed{stroke-dasharray:6 4}
.d-head{fill:none;stroke:#2d343c;stroke-width:1.2}
.d-head.filled{fill:#2d343c}
.d-head.hollow{fill:#ffffff}
.d-hit{fill:none;stroke:transparent;stroke-width:12}
.d-label-bg{fill:#ffffff;opacity:.85}
</style><rect x="-26" y="-36" width="1348" height="712" fill="#fff"/><rect class="d-frame" x="-10" y="-20" width="1316" height="680"/><path class="d-frame-tab" d="M-10 -20h259v14l-10 10H-10z"/><text class="d-mono" x="0" y="-4">bdd [package] Web app [The web app]</text><g class="d-symbols"><g class="d-sym " data-sym="sy_013" transform="translate(520 300)"><rect class="d-shape" width="280" height="50"/><text class="d-mono" x="140" y="19" text-anchor="middle">«block»</text><text class="d-name" x="140" y="36" text-anchor="middle">IDEF0 Modeler (web)</text></g><g class="d-sym " data-sym="sy_014" transform="translate(40 40)"><rect class="d-shape" width="160" height="50"/><text class="d-mono" x="80" y="19" text-anchor="middle">«block»</text><text class="d-name" x="80" y="36" text-anchor="middle">Canvas</text></g><g class="d-sym " data-sym="sy_015" transform="translate(216 40)"><rect class="d-shape" width="160" height="50"/><text class="d-mono" x="80" y="19" text-anchor="middle">«block»</text><text class="d-name" x="80" y="36" text-anchor="middle">Panels</text></g><g class="d-sym " data-sym="sy_016" transform="translate(392 40)"><rect class="d-shape" width="160" height="50"/><text class="d-mono" x="80" y="19" text-anchor="middle">«block»</text><text class="d-name" x="80" y="36" text-anchor="middle">Renderer</text></g><g class="d-sym " data-sym="sy_017" transform="translate(568 40)"><rect class="d-shape" width="160" height="50"/><text class="d-mono" x="80" y="19" text-anchor="middle">«block»</text><text class="d-name" x="80" y="36" text-anchor="middle">Store</text></g><g class="d-sym " data-sym="sy_018" transform="translate(744 40)"><rect class="d-shape" width="160" height="50"/><text class="d-mono" x="80" y="19" text-anchor="middle">«block»</text><text class="d-name" x="80" y="36" text-anchor="middle">Persistence</text></g><g class="d-sym " data-sym="sy_019" transform="translate(920 40)"><rect class="d-shape" width="160" height="50"/><text class="d-mono" x="80" y="19" text-anchor="middle">«block»</text><text class="d-name" x="80" y="36" text-anchor="middle">Native format</text></g><g class="d-sym " data-sym="sy_020" transform="translate(1096 40)"><rect class="d-shape" width="160" height="50"/><text class="d-mono" x="80" y="19" text-anchor="middle">«block»</text><text class="d-name" x="80" y="36" text-anchor="middle">XML interchange</text></g><g class="d-sym " data-sym="sy_021" transform="translate(40 560)"><rect class="d-shape" width="160" height="50"/><text class="d-mono" x="80" y="19" text-anchor="middle">«block»</text><text class="d-name" x="80" y="36" text-anchor="middle">Model operations</text></g><g class="d-sym " data-sym="sy_022" transform="translate(216 560)"><rect class="d-shape" width="160" height="50"/><text class="d-mono" x="80" y="19" text-anchor="middle">«block»</text><text class="d-name" x="80" y="36" text-anchor="middle">Geometry</text></g><g class="d-sym " data-sym="sy_023" transform="translate(392 560)"><rect class="d-shape" width="160" height="50"/><text class="d-mono" x="80" y="19" text-anchor="middle">«block»</text><text class="d-name" x="80" y="36" text-anchor="middle">Concept registry</text></g><g class="d-sym " data-sym="sy_024" transform="translate(568 560)"><rect class="d-shape" width="160" height="50"/><text class="d-mono" x="80" y="19" text-anchor="middle">«block»</text><text class="d-name" x="80" y="36" text-anchor="middle">Naming edits</text></g><g class="d-sym " data-sym="sy_025" transform="translate(744 560)"><rect class="d-shape" width="160" height="50"/><text class="d-mono" x="80" y="19" text-anchor="middle">«block»</text><text class="d-name" x="80" y="36" text-anchor="middle">Rule checker</text></g><g class="d-sym " data-sym="sy_026" transform="translate(920 560)"><rect class="d-shape" width="160" height="50"/><text class="d-mono" x="80" y="19" text-anchor="middle">«block»</text><text class="d-name" x="80" y="36" text-anchor="middle">Report</text></g><g class="d-sym " data-sym="sy_027" transform="translate(1096 560)"><rect class="d-shape" width="160" height="50"/><text class="d-mono" x="80" y="19" text-anchor="middle">«block»</text><text class="d-name" x="80" y="36" text-anchor="middle">Image export</text></g></g><g class="d-paths"><g class="d-path" data-path="pa_017"><path class="d-hit" d="M660 300L660 195L120 195L120 90"/><path class="d-line" d="M660 300L660 195L120 195L120 90"/><path class="d-head filled" transform="translate(660 300) rotate(90)" d="M0 0L-9 -5L-18 0L-9 5Z"/><text class="d-mono" x="126" y="114">canvas</text><text class="d-mono" x="114" y="114" text-anchor="end">1</text></g><g class="d-path" data-path="pa_018"><path class="d-hit" d="M660 300L660 195L296 195L296 90"/><path class="d-line" d="M660 300L660 195L296 195L296 90"/><path class="d-head filled" transform="translate(660 300) rotate(90)" d="M0 0L-9 -5L-18 0L-9 5Z"/><text class="d-mono" x="302" y="114">panels</text><text class="d-mono" x="290" y="114" text-anchor="end">1</text></g><g class="d-path" data-path="pa_019"><path class="d-hit" d="M660 300L660 195L472 195L472 90"/><path class="d-line" d="M660 300L660 195L472 195L472 90"/><path class="d-head filled" transform="translate(660 300) rotate(90)" d="M0 0L-9 -5L-18 0L-9 5Z"/><text class="d-mono" x="478" y="114">renderer</text><text class="d-mono" x="466" y="114" text-anchor="end">1</text></g><g class="d-path" data-path="pa_020"><path class="d-hit" d="M660 300L660 195L648 195L648 90"/><path class="d-line" d="M660 300L660 195L648 195L648 90"/><path class="d-head filled" transform="translate(660 300) rotate(90)" d="M0 0L-9 -5L-18 0L-9 5Z"/><text class="d-mono" x="654" y="114">store</text><text class="d-mono" x="642" y="114" text-anchor="end">1</text></g><g class="d-path" data-path="pa_021"><path class="d-hit" d="M660 300L660 195L824 195L824 90"/><path class="d-line" d="M660 300L660 195L824 195L824 90"/><path class="d-head filled" transform="translate(660 300) rotate(90)" d="M0 0L-9 -5L-18 0L-9 5Z"/><text class="d-mono" x="830" y="114">persistence</text><text class="d-mono" x="818" y="114" text-anchor="end">1</text></g><g class="d-path" data-path="pa_022"><path class="d-hit" d="M660 300L660 195L1000 195L1000 90"/><path class="d-line" d="M660 300L660 195L1000 195L1000 90"/><path class="d-head filled" transform="translate(660 300) rotate(90)" d="M0 0L-9 -5L-18 0L-9 5Z"/><text class="d-mono" x="1006" y="114">json</text><text class="d-mono" x="994" y="114" text-anchor="end">1</text></g><g class="d-path" data-path="pa_023"><path class="d-hit" d="M660 300L660 195L1176 195L1176 90"/><path class="d-line" d="M660 300L660 195L1176 195L1176 90"/><path class="d-head filled" transform="translate(660 300) rotate(90)" d="M0 0L-9 -5L-18 0L-9 5Z"/><text class="d-mono" x="1182" y="114">xml</text><text class="d-mono" x="1170" y="114" text-anchor="end">1</text></g><g class="d-path" data-path="pa_024"><path class="d-hit" d="M660 350L660 455L120 455L120 560"/><path class="d-line" d="M660 350L660 455L120 455L120 560"/><path class="d-head filled" transform="translate(660 350) rotate(-90)" d="M0 0L-9 -5L-18 0L-9 5Z"/><text class="d-mono" x="126" y="544">model</text><text class="d-mono" x="114" y="544" text-anchor="end">1</text></g><g class="d-path" data-path="pa_025"><path class="d-hit" d="M660 350L660 455L296 455L296 560"/><path class="d-line" d="M660 350L660 455L296 455L296 560"/><path class="d-head filled" transform="translate(660 350) rotate(-90)" d="M0 0L-9 -5L-18 0L-9 5Z"/><text class="d-mono" x="302" y="544">geometry</text><text class="d-mono" x="290" y="544" text-anchor="end">1</text></g><g class="d-path" data-path="pa_026"><path class="d-hit" d="M660 350L660 455L472 455L472 560"/><path class="d-line" d="M660 350L660 455L472 455L472 560"/><path class="d-head filled" transform="translate(660 350) rotate(-90)" d="M0 0L-9 -5L-18 0L-9 5Z"/><text class="d-mono" x="478" y="544">concepts</text><text class="d-mono" x="466" y="544" text-anchor="end">1</text></g><g class="d-path" data-path="pa_027"><path class="d-hit" d="M660 350L660 455L648 455L648 560"/><path class="d-line" d="M660 350L660 455L648 455L648 560"/><path class="d-head filled" transform="translate(660 350) rotate(-90)" d="M0 0L-9 -5L-18 0L-9 5Z"/><text class="d-mono" x="654" y="544">edits</text><text class="d-mono" x="642" y="544" text-anchor="end">1</text></g><g class="d-path" data-path="pa_028"><path class="d-hit" d="M660 350L660 455L824 455L824 560"/><path class="d-line" d="M660 350L660 455L824 455L824 560"/><path class="d-head filled" transform="translate(660 350) rotate(-90)" d="M0 0L-9 -5L-18 0L-9 5Z"/><text class="d-mono" x="830" y="544">checks</text><text class="d-mono" x="818" y="544" text-anchor="end">1</text></g><g class="d-path" data-path="pa_029"><path class="d-hit" d="M660 350L660 455L1000 455L1000 560"/><path class="d-line" d="M660 350L660 455L1000 455L1000 560"/><path class="d-head filled" transform="translate(660 350) rotate(-90)" d="M0 0L-9 -5L-18 0L-9 5Z"/><text class="d-mono" x="1006" y="544">report</text><text class="d-mono" x="994" y="544" text-anchor="end">1</text></g><g class="d-path" data-path="pa_030"><path class="d-hit" d="M660 350L660 455L1176 455L1176 560"/><path class="d-line" d="M660 350L660 455L1176 455L1176 560"/><path class="d-head filled" transform="translate(660 350) rotate(-90)" d="M0 0L-9 -5L-18 0L-9 5Z"/><text class="d-mono" x="1182" y="544">images</text><text class="d-mono" x="1170" y="544" text-anchor="end">1</text></g></g><g class="d-ports"></g></svg>
